<svg width="1054" height="284" viewBox="0 0 1054 284" fill="none" xmlns="http://www.w3.org/2000/svg">
<line x1="265" y1="176.301" x2="90" y2="176.301" stroke="#1ED760" stroke-width="24"/>
<line x1="335" y1="214.301" x2="184" y2="214.301" stroke="#C02626" stroke-width="24"/>
<line x1="191" y1="138.301" x2="-0.000167847" y2="138.301" stroke="#E72AD4" stroke-opacity="0.6" stroke-width="24"/>
<line x1="335" y1="62" x2="184" y2="62" stroke="#FFE600" stroke-width="24"/>
<line x1="267" y1="100.301" x2="92" y2="100.301" stroke="#6C79EC" stroke-width="24"/>
<line x1="789" y1="114" x2="964" y2="114" stroke="#1ED760" stroke-width="24"/>
<line x1="719" y1="76" x2="870" y2="76" stroke="#C02626" stroke-width="24"/>
<line x1="863" y1="152" x2="1054" y2="152" stroke="#E72AD4" stroke-opacity="0.6" stroke-width="24"/>
<line x1="719" y1="228.301" x2="870" y2="228.301" stroke="#FFE600" stroke-width="24"/>
<line x1="787" y1="190" x2="962" y2="190" stroke="#6C79EC" stroke-width="24"/>
<path d="M578.6 79.6L542 220H500.6L478.2 127.6L455 220H413.6L378 79.6H414.6L434.8 181.8L459.8 79.6H497.4L521.4 181.8L541.8 79.6H578.6ZM687.152 79.6V107H629.952V136.6H672.752V163.2H629.952V220H595.752V79.6H687.152Z" fill="white"/>
</svg>
