<svg width="96" height="96" viewBox="0 0 96 96" fill="none" xmlns="http://www.w3.org/2000/svg">
<path d="M35 28C35.5523 28 36 27.5523 36 27C36 26.4477 35.5523 26 35 26C34.4477 26 34 26.4477 34 27C34 27.5523 34.4477 28 35 28Z" stroke="#A8A8A8" stroke-width="4" stroke-miterlimit="10" stroke-linecap="round"/>
<path d="M35 40C42.1797 40 48 34.1797 48 27C48 19.8203 42.1797 14 35 14C27.8203 14 22 19.8203 22 27C22 34.1797 27.8203 40 35 40Z" stroke="#A8A8A8" stroke-width="4" stroke-miterlimit="10" stroke-linecap="round"/>
<path d="M93 25C93.5523 25 94 24.5523 94 24C94 23.4477 93.5523 23 93 23C92.4477 23 92 23.4477 92 24C92 24.5523 92.4477 25 93 25Z" stroke="#A8A8A8" stroke-width="4" stroke-miterlimit="10" stroke-linecap="round" stroke-linejoin="round"/>
<path d="M84 92C84.5523 92 85 91.5523 85 91C85 90.4477 84.5523 90 84 90C83.4477 90 83 90.4477 83 91C83 91.5523 83.4477 92 84 92Z" stroke="#A8A8A8" stroke-width="4" stroke-miterlimit="10" stroke-linecap="round" stroke-linejoin="round"/>
<path d="M86 12C88.7614 12 91 9.76142 91 7C91 4.23858 88.7614 2 86 2C83.2386 2 81 4.23858 81 7C81 9.76142 83.2386 12 86 12Z" stroke="#A8A8A8" stroke-width="4" stroke-miterlimit="10" stroke-linecap="round" stroke-linejoin="round"/>
<path d="M2 48H94" stroke="#A8A8A8" stroke-width="4" stroke-miterlimit="10" stroke-linecap="round"/>
<path d="M61 9H74" stroke="#A8A8A8" stroke-width="4" stroke-miterlimit="10" stroke-linecap="round"/>
<path d="M71 24H86" stroke="#A8A8A8" stroke-width="4" stroke-miterlimit="10" stroke-linecap="round"/>
<path d="M68 30H84" stroke="#A8A8A8" stroke-width="4" stroke-miterlimit="10" stroke-linecap="round"/>
<path d="M68 16H78" stroke="#A8A8A8" stroke-width="4" stroke-miterlimit="10" stroke-linecap="round"/>
<path d="M71 94H48" stroke="#A8A8A8" stroke-width="4" stroke-miterlimit="10" stroke-linecap="round"/>
<path d="M90 75H75" stroke="#A8A8A8" stroke-width="4" stroke-miterlimit="10" stroke-linecap="round"/>
<path d="M87 69H66" stroke="#A8A8A8" stroke-width="4" stroke-miterlimit="10" stroke-linecap="round"/>
<path d="M82 82H72" stroke="#A8A8A8" stroke-width="4" stroke-miterlimit="10" stroke-linecap="round"/>
<path d="M83 42H93.623" stroke="#A8A8A8" stroke-width="4" stroke-miterlimit="10" stroke-linecap="round"/>
<path d="M86 59H92.612" stroke="#A8A8A8" stroke-width="4" stroke-miterlimit="10" stroke-linecap="round"/>
<path d="M89 54H93.586" stroke="#A8A8A8" stroke-width="4" stroke-miterlimit="10" stroke-linecap="round"/>
<path d="M52.003 83.78C51.395 83.847 50.782 83.899 50.166 83.936" stroke="#A8A8A8" stroke-width="4" stroke-miterlimit="10" stroke-linecap="round"/>
<path d="M42.9998 84.0001C33.0918 82.5081 24.1008 76.5751 18.5688 68.7371" stroke="#A8A8A8" stroke-width="4" stroke-miterlimit="10" stroke-linecap="round"/>
<path d="M83 54H81" stroke="#A8A8A8" stroke-width="4" stroke-miterlimit="10" stroke-linecap="round"/>
<path d="M78 59H76" stroke="#A8A8A8" stroke-width="4" stroke-miterlimit="10" stroke-linecap="round"/>
<path d="M60 69H58" stroke="#A8A8A8" stroke-width="4" stroke-miterlimit="10" stroke-linecap="round"/>
<path d="M64 24H62" stroke="#A8A8A8" stroke-width="4" stroke-miterlimit="10" stroke-linecap="round"/>
<path d="M69.175 88.873C69.175 88.873 77.667 85.208 81.334 66.295C81.334 66.295 81.438 63.749 91.013 63.999H91.016C92.944 59 94 53.585 94 47.833C94 43.735 93.464 39.929 92.459 36.147L92.371 35.823C83.167 36.583 79.333 34 79.333 34C75.333 12.667 65.174 5.314 65.174 5.314L65.128 5.295C59.835 3.17 54.054 2 48 2C22.595 2 2 22.595 2 48C2 73.405 22.595 94 48 94C55.645 94 62.831 92.174 69.175 88.873Z" stroke="#A8A8A8" stroke-width="4" stroke-miterlimit="10" stroke-linecap="round" stroke-linejoin="round"/>
</svg>
